<svg xmlns="http://www.w3.org/2000/svg" xmlns:xlink="http://www.w3.org/1999/xlink" width="144" height="144" viewBox="0 0 144 144"><defs><style>.a{clip-path:url(#a);}.b{fill:url(#b);}.c{fill:url(#c);}.d{fill:url(#d);}.e{fill:url(#e);}.f{fill:url(#f);}.g{fill:url(#g);}.h{fill:url(#h);}.i{fill:url(#i);}.j{fill:#432918;}.k{fill:#f6af95;}.l{fill:#505b78;}</style><clipPath id="a"><rect width="144" height="144"/></clipPath><radialGradient id="b" cx="0.5" cy="0.5" r="0.449" gradientTransform="translate(-0.137) scale(1.274 1)" gradientUnits="objectBoundingBox"><stop offset="0.574" stop-color="#f6af95" stop-opacity="0"/><stop offset="0.839" stop-color="#f6af95" stop-opacity="0.62"/><stop offset="0.988" stop-opacity="0.651"/><stop offset="0.988" stop-color="#050404" stop-opacity="0.655"/><stop offset="0.99" stop-color="#38393e" stop-opacity="0.718"/><stop offset="0.993" stop-color="#474b59" stop-opacity="0.78"/><stop offset="0.996" stop-color="#4d556b" stop-opacity="0.843"/><stop offset="0.998" stop-color="#4f5a75" stop-opacity="0.898"/><stop offset="1" stop-color="#505b78" stop-opacity="0.949"/></radialGradient><radialGradient id="c" r="0.532" gradientTransform="translate(0.056) scale(0.889 1)" xlink:href="#b"/><radialGradient id="d" r="0.573" gradientTransform="translate(0.108) scale(0.784 1)" xlink:href="#b"/><radialGradient id="e" r="0.473" gradientTransform="translate(-0.063) scale(1.125 1)" xlink:href="#b"/><radialGradient id="f" r="0.449" gradientTransform="matrix(1, 0, 0, 1, 0, 0)" xlink:href="#b"/><radialGradient id="g" r="0.531" gradientTransform="translate(0.054) scale(0.891 1)" xlink:href="#b"/><radialGradient id="h" r="0.571" gradientTransform="translate(0.105) scale(0.789 1)" xlink:href="#b"/><radialGradient id="i" r="0.472" gradientTransform="translate(-0.064) scale(1.129 1)" xlink:href="#b"/></defs><g class="a"><g transform="translate(0 0.03)"><g transform="translate(0 0)"><path class="b" d="M104.288,116.714a.86.86,0,0,0,.336-.24,59.227,59.227,0,0,1-28.109,12.088.218.218,0,0,0-.24,0,59.781,59.781,0,0,1-41.44-9.354,63.779,63.779,0,0,1-9.354-7.627A59.925,59.925,0,0,1,8.495,77.764a.306.306,0,0,0,0-.288,60.013,60.013,0,0,1,12.856-46.24c.048-.048.048-.048.048-.1.336-.336.624-.72.96-1.056l1.008-1.152v-.048c.768-.768,1.44-1.486,2.158-2.206s1.44-1.39,2.158-2.062h.048c.672-.624,1.39-1.246,2.062-1.822.1-.1.144-.192.24-.24l.048-.048c.768-.672,1.582-1.294,2.4-1.966.048,0,.1-.048.144-.1.768-.576,1.534-1.152,2.35-1.726a2.842,2.842,0,0,1,.288-.192c.768-.528,1.534-1.008,2.3-1.534.1-.048.192-.144.288-.192a7.1,7.1,0,0,0,.624-.384c.336-.192.624-.384.912-.528.288-.192.576-.336.816-.528a.773.773,0,0,0,.336-.192.16.16,0,0,0,.1-.048c.768-.432,1.534-.816,2.3-1.246a4.457,4.457,0,0,1,.48-.24l2.3-1.152a5.627,5.627,0,0,1,.528-.24c.384-.144.72-.336,1.056-.48.576-.288,1.2-.528,1.822-.768.816-.336,1.582-.624,2.4-.912.432-.192.864-.336,1.294-.48l1.726-.576c.1-.048.192-.048.288-.1.912-.288,1.822-.576,2.734-.768,1.056-.288,2.062-.576,3.118-.768,2.062-.48,4.221-.864,6.331-1.152C68.079,6.1,69.181,6,70.237,5.9A59.92,59.92,0,0,0,28.5,29.5c-.048.048-.144.1-.192.144a59.65,59.65,0,0,0-11.95,35.931,61.243,61.243,0,0,0,1.2,12A59.851,59.851,0,0,0,40.3,113.5a.518.518,0,0,1,.192.24,59.322,59.322,0,0,0,28.16,11.272H68.7a.363.363,0,0,1,.192.048l1.294.144a.608.608,0,0,0,.288.048,3.7,3.7,0,0,0,.72.1c.24.048.528.048.768.1h.24a.432.432,0,0,1,.24.048h.624a.608.608,0,0,0,.288.048c1.008.048,2.062.1,3.07.1s2.062-.048,3.07-.1a.608.608,0,0,0,.288-.048h.624a.432.432,0,0,1,.24-.048,7.153,7.153,0,0,0,1.008-.1c.384-.048.72-.1,1.056-.144a2.9,2.9,0,0,0,.72-.1.71.71,0,0,0,.336-.048,1.789,1.789,0,0,0,.576-.1.36.36,0,0,0,.24-.048c.672-.1,1.294-.192,1.92-.336,0,0,0-.048.048,0l1.152-.288a3.059,3.059,0,0,0,.336-.1.432.432,0,0,0,.24-.048,30.179,30.179,0,0,0,3.55-1.056.366.366,0,0,0,.24-.1,5.644,5.644,0,0,0,.96-.336,12,12,0,0,0,1.2-.432l.72-.288a6.8,6.8,0,0,0,.864-.384.149.149,0,0,0,.1-.048,6.241,6.241,0,0,0,.816-.384c.1,0,.144-.048.24-.1a3.713,3.713,0,0,1,.768-.336c.048-.048.1-.048.144-.1.384-.192.816-.432,1.246-.672a13.387,13.387,0,0,0,1.582-.912,3.966,3.966,0,0,0,.624-.336.861.861,0,0,0,.336-.24,8.384,8.384,0,0,0,1.39-.864,4,4,0,0,0,.576-.384,3.4,3.4,0,0,0,.658-.474Z" transform="translate(-4.418 -5.632)"/><path class="c" d="M125.262,74.743a3.822,3.822,0,0,0,.144-.72A60.138,60.138,0,0,1,113.844,104l-.192.192a59.99,59.99,0,0,1-35.926,22.738,61.619,61.619,0,0,1-12,1.2A59.544,59.544,0,0,1,29.8,116.188c-.048-.048-.1-.144-.192-.192A59.92,59.92,0,0,1,6.014,74.265v-.048c-.1-1.008-.144-2.014-.192-3.07-.048-1.008-.1-1.966-.1-3.022v-.1c0-1.056.048-2.014.1-3.022.048-1.056.1-2.062.192-3.07.1-1.1.192-2.158.336-3.262.288-2.014.624-3.981,1.056-5.949q.288-1.51.72-3.022c.24-1.008.528-1.966.864-2.974.048-.192.1-.336.144-.528.1-.288.192-.528.288-.816.24-.72.48-1.44.768-2.158.288-.816.576-1.63.912-2.4.384-.96.816-1.92,1.246-2.88a5.627,5.627,0,0,1,.24-.528l1.152-2.3a4.456,4.456,0,0,1,.24-.48c.432-.816.864-1.582,1.294-2.35a2.848,2.848,0,0,0,.192-.384c.048,0,.048,0,.048-.048.432-.768.912-1.534,1.39-2.3a2.03,2.03,0,0,1,.24-.336c.48-.768,1.008-1.534,1.534-2.3a.438.438,0,0,0,.144-.24l.048-.048c.576-.816,1.152-1.582,1.726-2.35.048-.048.048-.048.048-.1l.048-.048c.672-.816,1.294-1.63,1.966-2.4A60.013,60.013,0,0,0,9.8,67.969a.306.306,0,0,1,0,.288,59.925,59.925,0,0,0,16.979,33.829,63.779,63.779,0,0,0,9.354,7.627,59.781,59.781,0,0,0,41.44,9.354.218.218,0,0,1,.24,0,59.227,59.227,0,0,0,28.114-12.088c.048.048.1-.048.1-.048a8.824,8.824,0,0,0,1.056-.816c.048,0,.1-.048.144-.1.1-.1.24-.192.336-.288.048,0,.1-.048.144-.1.288-.192.576-.48.864-.72a8.343,8.343,0,0,0,.72-.624l.048-.048.1-.048c.576-.576,1.2-1.152,1.822-1.726l.384-.384h.048c.048-.048.1-.1.1-.144l.1-.1a19.4,19.4,0,0,0,1.678-1.774l.24-.24.1-.144a3.04,3.04,0,0,0,.528-.624c.048-.048.1-.1.1-.144a5.481,5.481,0,0,0,.72-.816,4,4,0,0,0,.384-.576,3.783,3.783,0,0,0,.576-.72c.048-.048.1-.1.1-.144.1-.1.192-.192.192-.288a.976.976,0,0,0,.288-.336,2.251,2.251,0,0,0,.288-.432,2.636,2.636,0,0,0,.336-.432l.288-.432a2.863,2.863,0,0,0,.432-.72,6.59,6.59,0,0,0,.624-.96,3.228,3.228,0,0,0,.336-.528,1.44,1.44,0,0,0,.192-.384.842.842,0,0,0,.192-.24c.336-.576.624-1.2.912-1.774a.414.414,0,0,0,.144-.288,12.133,12.133,0,0,0,.864-1.774c.048-.048.1-.1.048-.144a2.756,2.756,0,0,0,.192-.336,3.636,3.636,0,0,0,.288-.768,1.486,1.486,0,0,0,.288-.624c.048,0,.048-.048.048-.1a8.649,8.649,0,0,0,.384-1.008,5.12,5.12,0,0,0,.336-.912,3.048,3.048,0,0,0,.288-.864s.048,0,0-.048a.16.16,0,0,0,.048-.1c.144-.384.288-.816.432-1.2a13.736,13.736,0,0,0,.336-1.342.176.176,0,0,0,.048-.144,1.093,1.093,0,0,0,.144-.528.816.816,0,0,0,.048-.336c.048-.048.1-.048.048-.1.144-.576.288-1.152.384-1.726a2.381,2.381,0,0,0,.144-.624c0-.1.048-.144.048-.192.048-.24.048-.48.1-.672a.608.608,0,0,0,.048-.288,1.328,1.328,0,0,0,.048-.432.432.432,0,0,0,.048-.24A2.809,2.809,0,0,0,125.262,74.743Z" transform="translate(-5.726 3.864)"/><path class="d" d="M128.56,61.452a59.84,59.84,0,0,1-9.354,41.44,62.858,62.858,0,0,1-7.627,9.306,59.627,59.627,0,0,1-33.818,16.986h-.24a59.962,59.962,0,0,1-46.24-12.856h-.048l-.048-.048a13.659,13.659,0,0,1-1.246-1.1c-.336-.288-.624-.576-.96-.864h-.043a5.252,5.252,0,0,1-.528-.48v-.048c-.576-.48-1.152-1.056-1.678-1.582a.046.046,0,0,1-.048-.048c-.384-.336-.72-.72-1.056-1.056-.336-.384-.672-.768-1.008-1.1l-.048-.048a10.807,10.807,0,0,1-1.008-1.152c-.336-.384-.624-.768-.96-1.152-.672-.816-1.342-1.63-2.062-2.494-.576-.816-1.152-1.582-1.774-2.4a13.191,13.191,0,0,0-.912-1.342c-.24-.432-.528-.816-.816-1.246-.048-.1-.144-.24-.192-.336l-1.44-2.3a1.944,1.944,0,0,0-.24-.432c-.432-.768-.864-1.582-1.294-2.4-.48-.912-.96-1.822-1.39-2.782a2.828,2.828,0,0,1-.192-.384c-.816-1.774-1.534-3.55-2.206-5.421-.384-.96-.72-1.966-1.056-2.974-.048-.144-.1-.288-.144-.48a22.1,22.1,0,0,1-.72-2.542c-.288-1.056-.576-2.062-.768-3.118-.48-2.062-.864-4.221-1.152-6.331C6.1,69.6,6,68.5,5.906,67.439a59.92,59.92,0,0,0,23.6,41.733c.1.048.144.144.192.192a59.544,59.544,0,0,0,35.928,11.944,61.617,61.617,0,0,0,12-1.2,59.99,59.99,0,0,0,35.92-22.73l.192-.192A60.137,60.137,0,0,0,125.3,67.207c0-.192.048-.384.048-.576.048-.288.048-.576.1-.864v-.288a.363.363,0,0,0,.048-.192v-.048c.048-.288.048-.624.1-.912,0-.912.048-1.774.048-2.734v-.528c0-.96-.048-1.92-.048-2.83-.048-.336-.048-.624-.1-.912-.048-.384-.048-.768-.1-1.152a.432.432,0,0,1-.048-.24c0-.24-.048-.432-.048-.624a3.823,3.823,0,0,0-.144-.72c-.048-.336-.1-.672-.144-.96a2.43,2.43,0,0,0-.1-.624c.048-.048,0-.144-.048-.192a6.618,6.618,0,0,0-.144-.96,24.114,24.114,0,0,0-.768-3.214,4.493,4.493,0,0,0-.192-.768,18.977,18.977,0,0,0-.72-2.158,16.3,16.3,0,0,0-.576-1.63,8.118,8.118,0,0,0-.624-1.486,3.438,3.438,0,0,0-.48-1.056,1.525,1.525,0,0,0-.144-.432,2.931,2.931,0,0,0-.336-.672v-.1a3.967,3.967,0,0,0-.432-.768.25.25,0,0,0-.1-.192,3.2,3.2,0,0,0-.288-.576,1.6,1.6,0,0,0-.288-.48.96.96,0,0,0-.192-.384,4.514,4.514,0,0,0-.576-1.056c-.048-.048-.048-.1-.1-.144a6.721,6.721,0,0,0-.48-.768,3.227,3.227,0,0,0-.336-.528c-.24-.384-.48-.768-.768-1.152a6.247,6.247,0,0,0-.48-.72l-.1-.1a1.045,1.045,0,0,0-.24-.384,59.182,59.182,0,0,1,12.04,28.061Q128.56,61.308,128.56,61.452Z" transform="translate(-5.618 10.68)"/><path class="e" d="M126.912,68.585a61.617,61.617,0,0,1,1.2,12A59.712,59.712,0,0,1,116.22,116.5a.222.222,0,0,0-.144.24,60.1,60.1,0,0,1-41.829,23.552l-1.294.144h-.384a13.027,13.027,0,0,1-1.39.048c-.48,0-.96.048-1.486.048-.528.048-1.056.048-1.582.048-1.056,0-2.062-.048-3.022-.1a14.87,14.87,0,0,1-1.486-.048h-.192l-1.44-.144c-1.1-.1-2.158-.192-3.262-.336q-1.44-.144-2.88-.432a.712.712,0,0,1-.336-.048c-.384-.048-.72-.144-1.056-.192-.576-.144-1.152-.24-1.678-.336a1.128,1.128,0,0,0-.384-.1c-.144-.048-.336-.048-.48-.1-.72-.192-1.44-.384-2.158-.528a.693.693,0,0,0-.336-.1c-.384-.1-.816-.24-1.2-.336-.672-.192-1.342-.384-1.966-.624-.816-.24-1.63-.528-2.446-.816-.192-.048-.384-.144-.576-.192a1.7,1.7,0,0,1-.432-.192,11.222,11.222,0,0,1-1.152-.432c-1.246-.48-2.494-1.008-3.693-1.582a2.571,2.571,0,0,1-.528-.24c-.96-.432-1.87-.912-2.782-1.39-.624-.288-1.2-.624-1.774-.96a5.228,5.228,0,0,0-.528-.288.16.16,0,0,0-.1-.048,2.08,2.08,0,0,0-.336-.192l-2.3-1.44h-.048c-.1-.048-.192-.144-.288-.192-.768-.528-1.534-1.008-2.3-1.534a2.838,2.838,0,0,1-.288-.192c-1.678-1.2-3.31-2.494-4.893-3.84A59.96,59.96,0,0,0,68.006,136.5h.24a59.627,59.627,0,0,0,33.818-16.974,62.86,62.86,0,0,0,7.627-9.306,59.84,59.84,0,0,0,9.354-41.44v-.288A59.182,59.182,0,0,0,107,40.425c-.288-.432-.624-.864-.96-1.294-.288-.336-.576-.72-.912-1.1a.566.566,0,0,0-.24-.24,4.151,4.151,0,0,0-.336-.48c-.048-.1-.144-.144-.24-.24-.048-.048-.1-.144-.144-.192C103.6,36.2,103.02,35.629,102.4,35q-.072-.144-.144-.144c-.048-.1-.144-.192-.192-.192v-.048A8.578,8.578,0,0,0,101.39,34c-.24-.24-.528-.528-.816-.768-.24-.24-.528-.48-.768-.72-.1-.048-.144-.144-.24-.192a1.28,1.28,0,0,0-.288-.24,2.08,2.08,0,0,0-.338-.291c-.912-.768-1.87-1.534-2.83-2.206a13.194,13.194,0,0,0-1.342-.912,2.721,2.721,0,0,0-.624-.384c-.384-.288-.768-.528-1.152-.768-.1-.048-.192-.144-.24-.144a.438.438,0,0,0-.24-.144,5.244,5.244,0,0,0-.72-.384,3.577,3.577,0,0,0-.576-.336,19.934,19.934,0,0,0-2.254-1.152c-.048-.048-.048-.1-.1-.048a.25.25,0,0,0-.192-.1,4.841,4.841,0,0,0-.72-.336,15.131,15.131,0,0,0-2.254-.96,5.379,5.379,0,0,0-.624-.24.681.681,0,0,0-.288-.1l-.048-.048a4.454,4.454,0,0,0-.624-.192c0-.048-.048,0-.048,0a13.681,13.681,0,0,0-2.59-.864c-.1-.048-.192-.048-.288-.1-.192-.048-.384-.1-.528-.144a25.318,25.318,0,0,0-3.166-.768c-1.1-.24-2.254-.432-3.406-.576A61,61,0,0,1,104.068,32.5q0,.072.144.144a59.923,59.923,0,0,1,22.7,35.942Z" transform="translate(3.898 3.361)"/><path class="f" d="M129.194,70.2a59.714,59.714,0,0,1-12.856,46.194c-.624.816-1.342,1.582-2.014,2.3v.048l-.1.1c-.672.72-1.39,1.44-2.062,2.11-.72.72-1.39,1.39-2.158,2.11h-.048c-.384.336-.768.72-1.152,1.056a.842.842,0,0,0-.24.192c-.288.24-.576.48-.864.768h-.048l-.048.048c-.768.672-1.582,1.294-2.4,1.966-.048,0-.048,0-.1.048-.72.576-1.486,1.1-2.206,1.63a2.636,2.636,0,0,0-.432.336c-.768.528-1.534,1.056-2.35,1.534-.1.048-.192.144-.288.192-.768.48-1.534.96-2.35,1.44a2.676,2.676,0,0,1-.384.24c-.768.432-1.534.864-2.35,1.246-.144.1-.288.144-.432.24l-2.3,1.152a2.569,2.569,0,0,1-.528.24c-.336.144-.672.336-1.056.48a2.933,2.933,0,0,1-.576.24c-.24.1-.48.24-.768.336a4.671,4.671,0,0,0-.528.24c-.288.1-.528.192-.768.288a16.418,16.418,0,0,1-1.63.624,4.972,4.972,0,0,1-.48.192h-.048c-.816.288-1.63.576-2.446.816-.672.24-1.294.432-1.966.624-.432.1-.816.24-1.2.336a.693.693,0,0,0-.336.1c-.72.144-1.44.336-2.158.528-.144.048-.288.048-.48.1a1.13,1.13,0,0,0-.384.1c-.528.1-1.1.192-1.678.336a6.882,6.882,0,0,1-1.056.192.816.816,0,0,1-.336.048q-1.44.288-2.88.432c-1.1.144-2.158.24-3.262.336a60.094,60.094,0,0,0,41.838-23.552.221.221,0,0,1,.144-.24,59.712,59.712,0,0,0,11.9-35.928,61.618,61.618,0,0,0-1.2-12,59.923,59.923,0,0,0-22.69-35.926q-.144-.072-.144-.144a61,61,0,0,0-29.978-11.6c-.24,0-.432-.048-.672-.048-.384-.048-.768-.048-1.152-.1-.288-.048-.576-.048-.864-.1h-.24c-.96-.048-2.014-.1-3.07-.1h-.144c-1.008,0-1.966.048-2.88.1h-.24a5.28,5.28,0,0,0-.864.1h-.232c-.288.048-.624.048-.96.1q-1.44.144-2.88.432c-.288.048-.528.1-.768.144a15.1,15.1,0,0,0-2.014.432,5.059,5.059,0,0,0-.912.24c-.048-.048-.048-.048-.1,0a6.615,6.615,0,0,0-1.39.384.176.176,0,0,0-.144.048,6.7,6.7,0,0,0-1.39.432,1.006,1.006,0,0,0-.528.192,17.172,17.172,0,0,0-1.678.528,4.457,4.457,0,0,0-.48.24,1.477,1.477,0,0,0-.576.24.435.435,0,0,0-.336.144,2.032,2.032,0,0,0-.672.288,16.906,16.906,0,0,0-2.83,1.342.366.366,0,0,0-.24.1A6.144,6.144,0,0,0,38.1,28a15.583,15.583,0,0,0-2.542,1.534h-.042a1.723,1.723,0,0,0-.48.336,6.967,6.967,0,0,0-1.246.816.363.363,0,0,1-.192.1,1.28,1.28,0,0,0-.288.24c-.1,0-.144.048-.24.144A59.347,59.347,0,0,1,61.18,19.122h.24a59.819,59.819,0,0,1,41.488,9.291,63.779,63.779,0,0,1,9.354,7.627,59.538,59.538,0,0,1,16.933,33.87Z" transform="translate(10.681 1.933)"/><path class="g" d="M140.5,73.151v.1c0,1.056-.048,2.014-.1,3.022-.048.864-.1,1.678-.144,2.494a9.312,9.312,0,0,1-.1,1.152c-.1.912-.192,1.774-.288,2.686v.1c-.144,1.056-.336,2.11-.528,3.166s-.384,2.062-.624,3.07a.067.067,0,0,1,0,.1c-.24.96-.48,1.966-.72,2.926-.288,1.056-.576,2.11-.912,3.118-.288.864-.528,1.678-.864,2.494a1.44,1.44,0,0,1-.192.48,16.416,16.416,0,0,1-.624,1.63,9.613,9.613,0,0,1-.48,1.246c-.384.912-.768,1.774-1.152,2.638a2.826,2.826,0,0,1-.192.384c-.432.912-.864,1.822-1.342,2.686-.48.96-1.008,1.87-1.534,2.83l-1.44,2.3c-.048.1-.144.24-.192.336-.288.432-.576.816-.816,1.246a13.2,13.2,0,0,0-.912,1.342c-.624.816-1.246,1.678-1.87,2.494-.672.816-1.294,1.63-1.966,2.4a59.714,59.714,0,0,0,12.856-46.194v-.288a59.538,59.538,0,0,0-16.928-33.869,63.777,63.777,0,0,0-9.354-7.632A59.819,59.819,0,0,0,68.6,22.3h-.24A59.347,59.347,0,0,0,40.25,34.34a2.254,2.254,0,0,0-.576.432,1.323,1.323,0,0,0-.432.336c-.1.048-.192.144-.288.192l-1.008.864c-.144.1-.24.192-.384.288-.24.192-.432.384-.672.576-.048,0-.1.048-.144.1l-.576.576c-.192.144-.336.336-.528.48l-.432.432a7.963,7.963,0,0,0-.672.624v.048c-.048,0-.048,0-.1.048-.528.528-1.008,1.008-1.44,1.534-.144.192-.384.432-.576.672l-.1.1-.048.048-.048.048c-.1.048-.144.144-.192.192a5.1,5.1,0,0,1-.432.528,8.758,8.758,0,0,0-.624.768c-.144.192-.288.336-.432.528a4.347,4.347,0,0,0-.528.768,5.237,5.237,0,0,0-.624.816,2.129,2.129,0,0,0-.384.528,1.045,1.045,0,0,0-.24.384,8.479,8.479,0,0,0-.576.816,2.751,2.751,0,0,0-.192.336c-.1.144-.192.288-.336.48a4.8,4.8,0,0,0-.384.672,1.944,1.944,0,0,0-.24.432,1.28,1.28,0,0,0-.288.48,1.944,1.944,0,0,0-.24.432,2.584,2.584,0,0,0-.336.624,1.048,1.048,0,0,0-.144.24,3.577,3.577,0,0,0-.336.576c-.048.1-.1.24-.144.336l-.288.576c0,.048-.048.1-.048.144-.1.24-.24.432-.336.672-.048.1-.048.144-.1.24l-.288.576a.366.366,0,0,1-.1.24,5.378,5.378,0,0,0-.24.624,12.094,12.094,0,0,0-.624,1.582.682.682,0,0,0-.1.288c-.048.048-.048.1-.1.192a31.726,31.726,0,0,0-1.2,3.789c0,.1-.048.144-.048.24-.24.768-.432,1.534-.624,2.35-.144.672-.24,1.294-.384,1.966A59.451,59.451,0,0,1,32.37,37.277a.374.374,0,0,0,.192-.192A59.923,59.923,0,0,1,68.5,14.391a61.618,61.618,0,0,1,12-1.2,59.818,59.818,0,0,1,35.928,11.9.374.374,0,0,0,.192.192,60.12,60.12,0,0,1,23.6,41.781,1.8,1.8,0,0,1,.048.48c.048.864.1,1.678.144,2.59C140.461,71.137,140.5,72.1,140.5,73.151Z" transform="translate(3.497 -1.259)"/><path class="h" d="M141.423,66.964c.144,1.1.24,2.158.336,3.262a60.12,60.12,0,0,0-23.594-41.781.374.374,0,0,1-.192-.192,59.818,59.818,0,0,0-35.928-11.9,61.617,61.617,0,0,0-12,1.2A59.923,59.923,0,0,0,34.119,40.246a.374.374,0,0,1-.192.192,59.451,59.451,0,0,0-11.272,27.87,2.4,2.4,0,0,1-.1.576c-.048.528-.144,1.056-.192,1.534-.1.672-.144,1.342-.192,2.014a5.876,5.876,0,0,0-.1.912c0,.96-.1,2.014-.1,3.022v.048c0,1.1.1,2.014.1,3.022a.288.288,0,0,0,.048.192c0,.24.048.48.048.768a.288.288,0,0,1,.048.192v.144c.048.672.144,1.342.24,2.014a6.046,6.046,0,0,0,.192,1.342c0,.1.048.144.048.24a.712.712,0,0,0,.048.336,14.95,14.95,0,0,0,.432,2.11,7.456,7.456,0,0,0,.336,1.486v.1a19.059,19.059,0,0,0,.72,2.35,4.211,4.211,0,0,0,.336,1.1.176.176,0,0,0,.048.144.288.288,0,0,0,.048.192c.048.144.048.288.144.384a6.517,6.517,0,0,0,.528,1.342,8.65,8.65,0,0,0,.384,1.008,2,2,0,0,0,.192.48c0,.048.048.1.048.144l.144.288a4.842,4.842,0,0,0,.336.72c.384.816.768,1.63,1.2,2.4a1.621,1.621,0,0,0,.288.576c.048.144.192.336.288.528a1,1,0,0,0,.192.288,14.174,14.174,0,0,0,1.1,1.822,8.343,8.343,0,0,0,.528.864l.288.432c.432.624.864,1.2,1.294,1.774a59.68,59.68,0,0,1-12.52-28.64v-.288a60.218,60.218,0,0,1,9.352-41.5,62.856,62.856,0,0,1,7.626-9.3A59.61,59.61,0,0,1,69.951,8.491c.048,0,.144.048.24,0a60.08,60.08,0,0,1,45.574,12.376,2.254,2.254,0,0,1,.576.432h.048l.1.1c.72.576,1.44,1.246,2.158,1.92l.1.1.1.1a68.8,68.8,0,0,1,8.2,8.922l.144.144,1.152,1.582c.192.24.384.48.576.768l.048.048a.438.438,0,0,0,.144.24c.528.768,1.056,1.534,1.534,2.3.048.1.144.192.24.336.288.528.624,1.008.912,1.486a8.342,8.342,0,0,1,.528.864,2.845,2.845,0,0,0,.192.384c.432.768.864,1.534,1.246,2.3a31.347,31.347,0,0,1,1.44,2.83c.336.72.672,1.486,1.008,2.254.528,1.152.96,2.3,1.39,3.5v.048a11.04,11.04,0,0,1,.576,1.63,2.338,2.338,0,0,1,.192.528c.1.288.192.528.288.816a68.532,68.532,0,0,1,2.254,9.258C141.089,64.806,141.281,65.91,141.423,66.964Z" transform="translate(1.953 -4.426)"/><path class="i" d="M117.138,20.64c.624.48,1.246,1.008,1.822,1.534A60.08,60.08,0,0,0,73.391,9.8c-.1.048-.192,0-.24,0A59.61,59.61,0,0,0,39.285,26.779a62.86,62.86,0,0,0-7.626,9.3,60.218,60.218,0,0,0-9.354,41.493v.288a59.68,59.68,0,0,0,12.52,28.64,6.864,6.864,0,0,0,.528.72c.048.048.048.1.1.1.048.1.144.192.192.288.048,0,.048.048.1.1a14.923,14.923,0,0,0,1.44,1.678v.048a2.218,2.218,0,0,0,.336.336,5.749,5.749,0,0,0,.528.576.662.662,0,0,0,.144.192l.144.144a6.512,6.512,0,0,0,.576.576,3.1,3.1,0,0,0,.384.432h.048c.48.528,1.008,1.008,1.534,1.486a7.642,7.642,0,0,0,.624.624h.048a10.053,10.053,0,0,0,.816.672c.288.288.624.528.912.768.048.048.1.1.144.1a3.079,3.079,0,0,0,.624.48,11.877,11.877,0,0,0,1.246.912,4.5,4.5,0,0,0,.576.432c0,.048.048.048.1.048a8.481,8.481,0,0,0,.816.576,6.72,6.72,0,0,0,.768.48.842.842,0,0,0,.24.192,9.512,9.512,0,0,0,.96.528,2.862,2.862,0,0,0,.72.432,5.4,5.4,0,0,0,1.008.576,2.752,2.752,0,0,0,.336.192,1.016,1.016,0,0,0,.336.144c.1.048.144.1.24.144a1.817,1.817,0,0,0,.624.288c.432.24.864.432,1.246.624a4.671,4.671,0,0,0,.528.24c.336.144.624.288.912.384a1.7,1.7,0,0,0,.432.192c.048,0,.1.048.144.048.144.048.24.1.384.144a11.932,11.932,0,0,0,1.39.528,4.218,4.218,0,0,0,.72.24c.1.048.144.1.24.1.144.048.288.1.48.144a.81.81,0,0,0,.48.144,3.308,3.308,0,0,0,.384.144,3.594,3.594,0,0,0,.768.192c.624.192,1.246.384,1.87.528l.72.144a25.674,25.674,0,0,0,2.638.528.176.176,0,0,0,.144.048,59.322,59.322,0,0,1-28.16-11.272.518.518,0,0,0-.192-.24A59.853,59.853,0,0,1,14.391,77.68a61.245,61.245,0,0,1-1.2-12A59.65,59.65,0,0,1,25.135,29.752c.048-.048.144-.1.192-.144A59.92,59.92,0,0,1,67.06,6.009a.306.306,0,0,1,.288,0,11.882,11.882,0,0,1,1.294-.144c.528-.048,1.056-.048,1.63-.1q3.022-.072,6.043,0c.96.048,1.92.1,2.88.24a.214.214,0,0,1,.24,0c1.056.1,2.158.192,3.214.336,2.11.288,4.269.672,6.331,1.152,1.056.192,2.062.48,3.118.768.912.192,1.822.48,2.734.768a3.1,3.1,0,0,1,.624.192c1.92.624,3.741,1.342,5.565,2.11.816.336,1.63.672,2.4,1.008a5.628,5.628,0,0,1,.528.24l2.3,1.152c.96.48,1.87.96,2.782,1.486.1.048.144.1.24.144.768.432,1.582.912,2.35,1.44l.432.288c.816.528,1.582,1.056,2.35,1.534C115.364,19.3,116.226,19.968,117.138,20.64Z" transform="translate(-1.247 -5.734)"/><g transform="translate(54.253 29.537)"><path class="j" d="M42.319,38.872H39.634l1.822-14.678h0l6.475,11.128-1.152-.288,9.162-10.84h.048L54.167,38.872H51.386l1.056-8.442v1.44l-5.613,6.811h-.05L42.7,31.871l.624-1.342Z" transform="translate(-39.634 -24.194)"/><path class="j" d="M53.886,36.566l-3.07-8.442H53.83l2.3,7.1Zm-2.734,3.981,7.1-12.424h2.4L53.7,40.547Z" transform="translate(-32.925 -21.837)"/></g><g transform="translate(31.371 59.564)"><path class="k" d="M29.842,43.441a7.135,7.135,0,0,1,1.582.192,2.963,2.963,0,0,1,1.152.624,3.84,3.84,0,0,1,.72,1.008,3.662,3.662,0,0,1,.24,1.294,4.709,4.709,0,0,1-.24,1.39,4.069,4.069,0,0,1-.72,1.342A4.666,4.666,0,0,1,31.282,50.3a4.787,4.787,0,0,1-1.966.384h-1.44l-.384,3.36H25.333l1.294-10.6Zm-.336,5.229a1.643,1.643,0,0,0,.864-.192,1.92,1.92,0,0,0,.576-.48,1.621,1.621,0,0,0,.288-.576,2.475,2.475,0,0,0,.1-.528,3.542,3.542,0,0,0-.1-.576,1.342,1.342,0,0,0-.432-.624,1.293,1.293,0,0,0-.912-.24H28.547l-.384,3.214Z" transform="translate(-25.333 -42.673)"/><path class="k" d="M36.115,51.016a2.4,2.4,0,0,0,.576-.1,2.571,2.571,0,0,0,.528-.24l.72,1.534a4.144,4.144,0,0,1-1.008.336,3.651,3.651,0,0,1-1.008.144,4.414,4.414,0,0,1-1.822-.336,2.435,2.435,0,0,1-1.2-1.1,3.659,3.659,0,0,1-.432-1.822,3.224,3.224,0,0,1,.192-1.152,4.532,4.532,0,0,1,.624-1.152,3.626,3.626,0,0,1,1.152-.864,3.829,3.829,0,0,1,1.726-.336,4.355,4.355,0,0,1,1.1.144,3.213,3.213,0,0,1,1.008.48,2.8,2.8,0,0,1,.768,1.008,3.866,3.866,0,0,1,.432,1.63L34.39,50.437l-.336-1.1,3.933-1.008-.72.192a1.7,1.7,0,0,0-.432-.768,1.128,1.128,0,0,0-.768-.24,1.89,1.89,0,0,0-.96.24,1.326,1.326,0,0,0-.528.624,2.24,2.24,0,0,0-.144.816,1.782,1.782,0,0,0,.288,1.1,1.44,1.44,0,0,0,.672.528,1.354,1.354,0,0,0,.72.2Z" transform="translate(-21.052 -41.183)"/><path class="k" d="M41.876,46.266l-.048,1.39a5.369,5.369,0,0,1,.816-.96,7.23,7.23,0,0,1,.96-.576,2.021,2.021,0,0,1,.864-.192l-.336,2.014a1.843,1.843,0,0,0-1.246.24,2.032,2.032,0,0,0-.864.816,2.36,2.36,0,0,0-.384,1.056L41.35,52.5H39.334l.768-6.283h1.774Z" transform="translate(-16.932 -41.181)"/><path class="k" d="M47.19,52.678a4.988,4.988,0,0,1-.72-.1,2.776,2.776,0,0,1-1.008-.336,2.445,2.445,0,0,1-.912-.816l.96-1.056a2.784,2.784,0,0,0,.72.624,1.845,1.845,0,0,0,.576.24c.192,0,.288.048.432.048.288,0,.48-.048.576-.192a.64.64,0,0,0,.144-.336.362.362,0,0,0-.192-.336,1.5,1.5,0,0,0-.48-.24c-.192-.048-.384-.144-.576-.192a2.027,2.027,0,0,1-1.056-.768,1.726,1.726,0,0,1-.336-1.056,3.764,3.764,0,0,1,.1-.672,2.631,2.631,0,0,1,.384-.72,1.907,1.907,0,0,1,.768-.576,3.04,3.04,0,0,1,1.246-.24,5.212,5.212,0,0,1,.864.048,5.8,5.8,0,0,1,.864.24,2.97,2.97,0,0,1,.816.528l-.912,1.152a5.431,5.431,0,0,0-.624-.48,1.147,1.147,0,0,0-.72-.144.96.96,0,0,0-.432.1,1.046,1.046,0,0,0-.24.192.682.682,0,0,0-.1.288.592.592,0,0,0,.192.384,1.773,1.773,0,0,0,.528.24,3.331,3.331,0,0,1,.624.24,1.806,1.806,0,0,1,.72.432,1.826,1.826,0,0,1,.432.624,2.24,2.24,0,0,1,.1.816,2.632,2.632,0,0,1-.24.816,3.622,3.622,0,0,1-.528.672,1.886,1.886,0,0,1-.816.432,4.2,4.2,0,0,1-1.15.144Z" transform="translate(-13.803 -41.164)"/><path class="k" d="M54.079,52.726a4.126,4.126,0,0,1-2.3-.768,3.342,3.342,0,0,1-.864-.96,2.6,2.6,0,0,1-.336-1.39,3.68,3.68,0,0,1,.192-1.2,4.093,4.093,0,0,1,.624-1.2,3.139,3.139,0,0,1,1.152-.912,3.909,3.909,0,0,1,1.774-.336,3.824,3.824,0,0,1,1.63.336,3.086,3.086,0,0,1,1.294,1.056,2.949,2.949,0,0,1,.528,1.726,6.738,6.738,0,0,1-.1.864,3.819,3.819,0,0,1-.336.96,2.984,2.984,0,0,1-.672.912,3.322,3.322,0,0,1-1.056.672A4.909,4.909,0,0,1,54.079,52.726Zm.048-1.678a1.237,1.237,0,0,0,.96-.336,1.611,1.611,0,0,0,.48-.768,2.661,2.661,0,0,0,.144-.816,1.92,1.92,0,0,0-.144-.816,1.05,1.05,0,0,0-.432-.48,1.245,1.245,0,0,0-.48-.192,1.192,1.192,0,0,0-.384-.048,1.522,1.522,0,0,0-.96.288,1.7,1.7,0,0,0-.528.768,2.661,2.661,0,0,0-.144.816,1.35,1.35,0,0,0,.288.96,1.066,1.066,0,0,0,.624.432.922.922,0,0,0,.576.19Z" transform="translate(-10.188 -41.164)"/><path class="k" d="M60.23,46.266l.048,1.246-.1-.24a3.373,3.373,0,0,1,1.056-.96,3.165,3.165,0,0,1,1.534-.384,2.123,2.123,0,0,1,1.44.528,1.642,1.642,0,0,1,.432,1.347l-.576,4.7H62.053l.48-3.981a1.394,1.394,0,0,0-.144-.672c-.144-.192-.336-.24-.672-.24a1.3,1.3,0,0,0-.816.288,2.174,2.174,0,0,0-.624.816,4.387,4.387,0,0,0-.336,1.2L59.6,52.458H57.592l.768-6.283h1.87Z" transform="translate(-5.978 -41.181)"/><path class="k" d="M67.24,52.677a2.165,2.165,0,0,1-1.2-.336,2.578,2.578,0,0,1-.96-1.056,3.615,3.615,0,0,1-.384-1.678,4.16,4.16,0,0,1,.24-1.342,6.116,6.116,0,0,1,.72-1.2,3.664,3.664,0,0,1,1.1-.816,3.5,3.5,0,0,1,1.44-.288,2.8,2.8,0,0,1,1.008.144,1.971,1.971,0,0,1,.624.384,4.32,4.32,0,0,1,.432.48l-.144.288.336-.96h1.87l-.768,6.283H69.591l.144-1.39.1.432a.828.828,0,0,0-.192.144,5.51,5.51,0,0,1-.48.384,2.584,2.584,0,0,1-.816.384,3.622,3.622,0,0,1-1.1.144Zm1.152-1.63a2.4,2.4,0,0,0,.576-.1,1.621,1.621,0,0,0,.528-.336,2.307,2.307,0,0,0,.432-.528l.192-1.534a1.144,1.144,0,0,0-.288-.528,1.1,1.1,0,0,0-.48-.336,1.533,1.533,0,0,0-.672-.144,1.373,1.373,0,0,0-.816.192,6,6,0,0,0-.576.432,3.577,3.577,0,0,0-.336.576,2.4,2.4,0,0,0-.1.576,1.947,1.947,0,0,0,.192.912,1.653,1.653,0,0,0,.576.576.99.99,0,0,0,.766.237Z" transform="translate(-1.715 -41.163)"/><path class="k" d="M73.521,42.961h2.016l-1.39,11.368H72.132Z" transform="translate(2.746 -42.961)"/></g><g transform="translate(39.766 84.316)"><path class="l" d="M35.137,58.911a7.134,7.134,0,0,1,1.582.192,2.963,2.963,0,0,1,1.152.624,3.84,3.84,0,0,1,.72,1.008,3.663,3.663,0,0,1,.24,1.294,4.709,4.709,0,0,1-.24,1.39,4.069,4.069,0,0,1-.72,1.342,4.666,4.666,0,0,1-1.294,1.008,4.118,4.118,0,0,1-1.966.384H33.17l-.432,3.36H30.58l1.294-10.6h3.262ZM34.8,64.092a1.643,1.643,0,0,0,.864-.192,1.92,1.92,0,0,0,.576-.48,1.621,1.621,0,0,0,.288-.576,2.475,2.475,0,0,0,.1-.528,3.543,3.543,0,0,0-.1-.576.96.96,0,0,0-.384-.576,1.589,1.589,0,0,0-.912-.24H33.89l-.384,3.214H34.8Z" transform="translate(-30.58 -58.143)"/><path class="l" d="M39.869,68.163a3.224,3.224,0,0,1-1.152-.192,4.309,4.309,0,0,1-1.152-.576,3.342,3.342,0,0,1-.864-.96,2.6,2.6,0,0,1-.336-1.39,3.68,3.68,0,0,1,.192-1.2,4.093,4.093,0,0,1,.624-1.2,3.139,3.139,0,0,1,1.152-.912A3.909,3.909,0,0,1,40.1,61.4a3.824,3.824,0,0,1,1.63.336,3.086,3.086,0,0,1,1.294,1.056,2.949,2.949,0,0,1,.528,1.726,6.741,6.741,0,0,1-.1.864,3.818,3.818,0,0,1-.336.96,2.986,2.986,0,0,1-.672.912,3.32,3.32,0,0,1-1.056.672A4.909,4.909,0,0,1,39.869,68.163Zm.048-1.63a1.237,1.237,0,0,0,.96-.336,1.611,1.611,0,0,0,.48-.768,2.661,2.661,0,0,0,.144-.816,1.92,1.92,0,0,0-.144-.816,1.05,1.05,0,0,0-.432-.48,1.013,1.013,0,0,0-.48-.192c-.144,0-.288-.048-.384-.048a1.522,1.522,0,0,0-.96.288,1.482,1.482,0,0,0-.528.768,2.661,2.661,0,0,0-.144.816,1.35,1.35,0,0,0,.288.96,1.066,1.066,0,0,0,.624.432A1.022,1.022,0,0,0,39.917,66.533Z" transform="translate(-27.11 -56.651)"/><path class="l" d="M44.634,61.706l-.048,1.39a5.371,5.371,0,0,1,.816-.96,7.23,7.23,0,0,1,.96-.576,2.178,2.178,0,0,1,.864-.192l-.336,2.014a1.843,1.843,0,0,0-1.246.24,2.032,2.032,0,0,0-.864.816,2.36,2.36,0,0,0-.384,1.056l-.288,2.446H42.092l.768-6.283h1.774Z" transform="translate(-23.673 -56.669)"/><path class="l" d="M47.807,59.87h2.014L49.485,62.6H51.02l-.192,1.582H49.293l-.576,4.749H46.7l.576-4.749h-.96l.192-1.582h.96Z" transform="translate(-21.137 -57.568)"/><path class="l" d="M51.674,58.911h6.619l-.24,1.966H53.592L53.3,63.324h3.84l-.24,2.014h-3.84l-.48,4.173H50.426Z" transform="translate(-18.672 -58.143)"/><path class="l" d="M59.115,68.165a3.224,3.224,0,0,1-1.152-.192,4.309,4.309,0,0,1-1.152-.576,3.342,3.342,0,0,1-.864-.96,2.6,2.6,0,0,1-.336-1.39,3.68,3.68,0,0,1,.192-1.2,4.093,4.093,0,0,1,.624-1.2,3.139,3.139,0,0,1,1.152-.912,3.91,3.91,0,0,1,1.774-.336,3.824,3.824,0,0,1,1.63.336,3.086,3.086,0,0,1,1.294,1.056,2.949,2.949,0,0,1,.528,1.726,6.74,6.74,0,0,1-.1.864,3.819,3.819,0,0,1-.336.96,2.984,2.984,0,0,1-.672.912,3.322,3.322,0,0,1-1.056.672,3.691,3.691,0,0,1-1.531.24Zm.048-1.63a1.237,1.237,0,0,0,.96-.336,1.878,1.878,0,0,0,.48-.768,2.661,2.661,0,0,0,.144-.816A1.92,1.92,0,0,0,60.6,63.8a1.05,1.05,0,0,0-.432-.48,1.013,1.013,0,0,0-.48-.192c-.144,0-.288-.048-.384-.048a1.522,1.522,0,0,0-.96.288,1.482,1.482,0,0,0-.528.768,2.66,2.66,0,0,0-.144.816,1.65,1.65,0,0,0,.24.96,1.066,1.066,0,0,0,.624.432,1.44,1.44,0,0,0,.626.192Z" transform="translate(-15.563 -56.653)"/><path class="l" d="M62.7,58.431h2.014L63.325,69.8H61.309Z" transform="translate(-12.143 -58.431)"/><path class="l" d="M65.105,62.82h2.014L66.351,69.1H64.337Zm.1-2.206a.96.96,0,0,1,.336-.768,1.251,1.251,0,0,1,.816-.336,1.354,1.354,0,0,1,.72.192.789.789,0,0,1,.384.72.96.96,0,0,1-.336.768,1.251,1.251,0,0,1-.816.336,1.354,1.354,0,0,1-.72-.192.789.789,0,0,1-.384-.72Z" transform="translate(-10.326 -57.784)"/><path class="l" d="M70.749,68.165a3.224,3.224,0,0,1-1.152-.192,4.309,4.309,0,0,1-1.152-.576,3.343,3.343,0,0,1-.864-.96,2.6,2.6,0,0,1-.336-1.39,3.68,3.68,0,0,1,.192-1.2,4.093,4.093,0,0,1,.624-1.2,3.139,3.139,0,0,1,1.152-.912,3.91,3.91,0,0,1,1.774-.336,3.824,3.824,0,0,1,1.63.336,3.086,3.086,0,0,1,1.294,1.056,2.949,2.949,0,0,1,.528,1.726,6.741,6.741,0,0,1-.1.864,3.819,3.819,0,0,1-.336.96,2.985,2.985,0,0,1-.672.912,3.32,3.32,0,0,1-1.056.672,4.909,4.909,0,0,1-1.531.24Zm.048-1.63a1.237,1.237,0,0,0,.96-.336,1.611,1.611,0,0,0,.48-.768,2.661,2.661,0,0,0,.144-.816,1.373,1.373,0,0,0-.192-.816,1.306,1.306,0,0,0-.384-.48,1.013,1.013,0,0,0-.48-.192c-.144,0-.288-.048-.384-.048a1.522,1.522,0,0,0-.96.288,1.482,1.482,0,0,0-.528.768,2.661,2.661,0,0,0-.144.816,1.333,1.333,0,0,0,.912,1.39,1.022,1.022,0,0,0,.576.194Z" transform="translate(-8.582 -56.653)"/></g></g></g></g></svg>